PathFileType	4	(X/Y/Z)	./resultDataOpenSim/trcMotMarkerGrf/sub09/qtm-15-04.trc
DataRate	CameraRate	NumFrames	NumMarkers	Units	OrigDataRate	OrigDataStartFrame	OrigNumFrames
250.000000	250.000000	6	24	m	250.000000	303	484
Frame#	Time	L.Toe.Tip			R.Toe.Tip			L.Ankle.Lat			R.Ankle.Lat			L.Ankle.Med			R.Ankle.Med			L.Heel			R.Heel			L.Knee.Lat			R.Knee.Lat			L.Knee.Med			R.Knee.Med			L.Thigh.Upper			R.Thigh.Upper			L.ASIS			R.ASIS			V.Sacral			L.Acromium			R.Acromium			C7			L.Elbow			R.Elbow			L.Wrist.Lat			R.Wrist.Lat
		X1	Y1	Z1	X2	Y2	Z2	X3	Y3	Z3	X4	Y4	Z4	X5	Y5	Z5	X6	Y6	Z6	X7	Y7	Z7	X8	Y8	Z8	X9	Y9	Z9	X10	Y10	Z10	X11	Y11	Z11	X12	Y12	Z12	X13	Y13	Z13	X14	Y14	Z14	X15	Y15	Z15	X16	Y16	Z16	X17	Y17	Z17	X18	Y18	Z18	X19	Y19	Z19	X20	Y20	Z20	X21	Y21	Z21	X22	Y22	Z22	X23	Y23	Z23	X24	Y24	Z24

303	1.208	0.14776657	-0.050820636	0.023623609	0.99950031	0.041373235	-0.0015955223	0.091771189	0.084262083	-0.064445893	0.852688	0.05139561	0.032776319	0.12330774	0.093105005	0.027604686	0.85850861	0.0955712	-0.056173898	0.026611484	0.11543251	-0.02234577	0.78380379	0.031773564	-0.017054492	0.36666517	0.4002579	-0.12200079	0.85952364	0.50328815	0.11693664	0.38515054	0.39192994	0.0027088126	0.83811782	0.49103357	-0.0081549678	0.50339273	0.78784507	-0.14539934	0.61196539	0.80904797	0.20172037	0.62701844	0.85722184	-0.12792436	0.6694424	0.8839051	0.10754353	0.48394434	0.94435108	0.016311801	0.71350351	1.3198631	-0.16384849	0.69003048	1.340987	0.15604473	0.63892016	1.3790724	-0.012618378	0.68197993	0.9436351	-0.27269384	0.44813847	1.1132822	0.28147493	0.93784751	1.0469895	-0.22257673	0.43634318	0.88270812	0.42940591
304	1.212	0.14928205	-0.049819037	0.022970314	1.0000825	0.040863416	-0.0018461694	0.09598842	0.086712227	-0.065230717	0.85292711	0.051672507	0.032741454	0.12823459	0.094938161	0.026586939	0.85903691	0.095491159	-0.056352466	0.031776516	0.11923028	-0.022727505	0.78408538	0.031952154	-0.016863652	0.37526905	0.39888246	-0.12329857	0.86787217	0.50360876	0.11606791	0.39429974	0.38981077	0.0012929016	0.84630813	0.49280908	-0.0090091395	0.5127013	0.78614645	-0.14728739	0.61818443	0.80852314	0.2020661	0.63468257	0.85579959	-0.12781701	0.67672233	0.8832339	0.10781462	0.49152311	0.9434819	0.016144063	0.72082316	1.3187073	-0.16409143	0.69768996	1.3395115	0.15618205	0.64650548	1.3780578	-0.012493223	0.68703058	0.94251806	-0.27289661	0.45590826	1.1118666	0.28123287	0.94327105	1.044563	-0.22213112	0.4427806	0.88145529	0.42910514
305	1.216	0.15090011	-0.04871655	0.022271625	1.000658	0.040401805	-0.0018290166	0.10034642	0.089333246	-0.065890734	0.85319418	0.05180245	0.032689406	0.13336426	0.096873083	0.025674793	0.85963714	0.095320946	-0.056568838	0.037169782	0.12322264	-0.022894872	0.7843483	0.03214678	-0.016740923	0.38413202	0.39744499	-0.12458917	0.87547761	0.50354386	0.11525166	0.40368937	0.38758758	-0.00020222957	0.85415035	0.49445973	-0.0098347615	0.52276164	0.78439373	-0.15006691	0.6244195	0.80820873	0.20241021	0.64229857	0.85442132	-0.12760175	0.68402349	0.88279789	0.10816522	0.49905947	0.94267016	0.015979475	0.728182	1.3175467	-0.16433534	0.70529069	1.3381234	0.15632702	0.65403966	1.3771471	-0.01239864	0.69197511	0.94144835	-0.2730706	0.46367513	1.1104128	0.28096352	0.94865222	1.0419687	-0.22172703	0.44932006	0.88014949	0.42873391
306	1.22	0.15260203	-0.047469955	0.02150927	1.0011515	0.040015763	-0.0017778245	0.10489711	0.092141693	-0.066404466	0.85349582	0.051798369	0.032536917	0.13870877	0.098903984	0.024883396	0.86022903	0.095096292	-0.056859026	0.042803133	0.12741968	-0.022871112	0.78456143	0.032321646	-0.01672122	0.39325098	0.39591702	-0.12589701	0.88242123	0.50321675	0.11441991	0.41327895	0.38529801	-0.0017753252	0.86161194	0.49587332	-0.01059835	0.53269629	0.78270997	-0.15314925	0.6307219	0.80808427	0.20270117	0.64985438	0.85310107	-0.1272949	0.69132553	0.88258297	0.10855828	0.50655083	0.94191993	0.015818433	0.73557767	1.3163791	-0.16456337	0.71281407	1.3368372	0.15647213	0.66151814	1.3763453	-0.012327769	0.69681295	0.94042187	-0.27320917	0.47141919	1.1089569	0.2806676	0.95399331	1.0392105	-0.22135874	0.45597438	0.87878435	0.42829258
307	1.224	0.1543923	-0.046022017	0.020666717	1.0015553	0.039701379	-0.0019018717	0.10967525	0.095172685	-0.066780236	0.85382867	0.051710772	0.032232251	0.14428023	0.10105453	0.024215839	0.86075156	0.094839396	-0.057239797	0.048695738	0.13184492	-0.022714261	0.78471036	0.03245641	-0.016804986	0.4025937	0.3942907	-0.12725221	0.8888257	0.50274813	0.11346617	0.42303486	0.38301893	-0.0034469473	0.86870922	0.49689679	-0.011320502	0.54163435	0.78121227	-0.15577125	0.63710703	0.80813321	0.20290995	0.65733002	0.85187201	-0.12692487	0.69860286	0.88256181	0.10896031	0.51399454	0.94123537	0.015661339	0.74299672	1.3152266	-0.16476276	0.72025138	1.3356765	0.15660534	0.66895649	1.3756555	-0.012273471	0.70154009	0.93945808	-0.27330953	0.4791385	1.1075492	0.28035725	0.95929798	1.0363016	-0.22103099	0.46275089	0.87737531	0.42777906
308	1.228	0.15628944	-0.044375985	0.019724104	1.0018735	0.039441583	-0.0022441361	0.1146869	0.098458211	-0.06705272	0.85414936	0.051586807	0.031794809	0.15008799	0.1033548	0.023664161	0.86118991	0.094544021	-0.057709127	0.054875903	0.13651327	-0.022463961	0.78479093	0.032549035	-0.01698657	0.41213045	0.39260207	-0.12866486	0.89479526	0.50211516	0.11237255	0.43295396	0.38079558	-0.0052033826	0.87548858	0.4973841	-0.012056867	0.54941778	0.77990646	-0.15747345	0.64358673	0.80834008	0.20302814	0.66470619	0.85076598	-0.12652563	0.70583324	0.882688	0.10933919	0.52138797	0.94062066	0.015508596	0.75041915	1.3141147	-0.16492322	0.72760319	1.33466	0.15671692	0.67635814	1.3750731	-0.012238432	0.70614824	0.93859364	-0.27336686	0.48681984	1.1062219	0.28003627	0.96456488	1.0332536	-0.22074469	0.46964195	0.87595249	0.42718893
